<?xml version="1.0" ?><!DOCTYPE svg  PUBLIC '-//W3C//DTD SVG 1.1//EN'  'http://www.w3.org/Graphics/SVG/1.1/DTD/svg11.dtd'><svg id="Layer_1" style="enable-background:new 0 0 64 64;" version="1.1" viewBox="0 0 64 64" xml:space="preserve" xmlns="http://www.w3.org/2000/svg" xmlns:xlink="http://www.w3.org/1999/xlink"><style type="text/css">
	.st0{fill:#000;}
</style><g><g id="Icon-Question" transform="translate(178.000000, 278.000000)"><path class="st0" d="M-145.9-222c-13.2,0-23.9-10.7-23.9-23.9s10.7-23.9,23.9-23.9c13.2,0,23.9,10.7,23.9,23.9     S-132.7-222-145.9-222L-145.9-222z M-145.9-267.2c-11.7,0-21.3,9.6-21.3,21.3c0,11.7,9.6,21.3,21.3,21.3     c11.7,0,21.3-9.6,21.3-21.3C-124.6-257.7-134.2-267.2-145.9-267.2L-145.9-267.2z" id="Fill-47"/><path class="st0" d="M-153.3-253.5c0.4-1.1,0.9-2,1.6-2.7c0.7-0.7,1.6-1.3,2.6-1.7c1-0.4,2.2-0.6,3.5-0.6     c1,0,2,0.2,2.9,0.5c0.9,0.3,1.7,0.8,2.4,1.3s1.2,1.3,1.6,2.1c0.4,0.8,0.6,1.8,0.6,2.9c0,1.4-0.3,2.5-0.9,3.5s-1.4,1.9-2.3,2.8     c-0.8,0.8-1.4,1.4-1.8,1.8c-0.5,0.4-0.8,0.9-1,1.3s-0.4,0.9-0.4,1.5c-0.1,0.6-0.1,1-0.1,2.1h-2.3c0-1.1,0-1.6,0.2-2.3     c0.1-0.8,0.4-1.4,0.7-2.1c0.3-0.6,0.8-1.2,1.3-1.8c0.6-0.6,1.2-1.2,2-1.9c0.7-0.6,1.3-1.3,1.7-2.1c0.5-0.8,0.7-1.7,0.7-2.6     c0-0.7-0.1-1.4-0.4-2c-0.3-0.6-0.7-1.1-1.1-1.6s-1-0.8-1.7-1c-0.6-0.2-1.3-0.4-2-0.4c-1,0-1.9,0.2-2.6,0.5     c-0.8,0.3-1.4,0.8-1.9,1.4c-0.5,0.6-0.9,1.3-1.1,2.1c-0.2,0.8-0.4,1.5-0.3,2.4h-2.3C-153.8-251.5-153.7-252.4-153.3-253.5     L-153.3-253.5z M-147.3-236h2.8v2.8h-2.8V-236z" id="Fill-48"/></g></g></svg>