<?xml version="1.0" encoding="utf-8"?>
<svg version="1.1" xmlns="http://www.w3.org/2000/svg" xmlns:xlink="http://www.w3.org/1999/xlink" x="0px" y="0px"
	 viewBox="0 0 169.7 56.9" style="enable-background:new 0 0 169.7 56.9;" xml:space="preserve">
<style type="text/css">
	.st0{fill:url(#SVGID_1_);}
	.st1{opacity:0.7;fill:url(#SVGID_00000063611475988263284420000009702651559890206595_);}
	.st2{opacity:0.7;fill:url(#SVGID_00000042735464766027049350000000658192078400738970_);}
	.st3{fill:url(#SVGID_00000159432013275381953620000007938985568076805293_);}
	.st4{fill:#2C3646;}
	.st5{opacity:0.7;fill:#999999;}
</style>
<g id="BACKGROUND">
</g>
<g id="OBJECTS">
	<g>
		<linearGradient id="SVGID_1_" gradientUnits="userSpaceOnUse" x1="5.2214" y1="31.6974" x2="56.8822" y2="31.6974">
			<stop  offset="0" style="stop-color:#0070BF"/>
			<stop  offset="0.3271" style="stop-color:#0093EE"/>
			<stop  offset="1" style="stop-color:#00E9FF"/>
		</linearGradient>
		<path class="st0" d="M50.4,6.5L38.1,18.7c1.1,1.9,1.7,4.3,1.7,7.1c0,4.1-1.2,7.3-3.6,9.6c-2.9,2.8-7.7,4.3-13.9,4.4v-5.2L5.2,51.7
			v5.2h16.2c23.5,0,35.5-13.9,35.5-31.1C56.9,18.5,54.7,11.8,50.4,6.5z"/>
		
			<linearGradient id="SVGID_00000132082352155902371220000005809281677670404795_" gradientUnits="userSpaceOnUse" x1="39.9045" y1="16.2315" x2="58.4443" y2="29.2133">
			<stop  offset="0" style="stop-color:#0070BF"/>
			<stop  offset="7.045745e-02" style="stop-color:#0079CB;stop-opacity:0.8676"/>
			<stop  offset="0.2218" style="stop-color:#0087DE;stop-opacity:0.5832"/>
			<stop  offset="0.3751" style="stop-color:#0090EA;stop-opacity:0.2951"/>
			<stop  offset="0.5322" style="stop-color:#0093EE;stop-opacity:0"/>
		</linearGradient>
		<path style="opacity:0.7;fill:url(#SVGID_00000132082352155902371220000005809281677670404795_);" d="M38.5,32.3h17.8
			c0.4-2.1,0.6-4.2,0.6-6.5c0-7.3-2.2-14-6.5-19.3L38.1,18.7c1.1,1.9,1.7,4.3,1.7,7.1C39.8,28.3,39.4,30.5,38.5,32.3z"/>
		
			<linearGradient id="SVGID_00000058562081717676832560000011708633759019788719_" gradientUnits="userSpaceOnUse" x1="9.0138" y1="43.5338" x2="28.9576" y2="52.8338">
			<stop  offset="0" style="stop-color:#0070BF"/>
			<stop  offset="3.366305e-02" style="stop-color:#0073C3;stop-opacity:0.9367"/>
			<stop  offset="0.3539" style="stop-color:#008AE2;stop-opacity:0.3349"/>
			<stop  offset="0.5322" style="stop-color:#0093EE;stop-opacity:0"/>
		</linearGradient>
		<path style="opacity:0.7;fill:url(#SVGID_00000058562081717676832560000011708633759019788719_);" d="M27.2,39.4
			c-1.5,0.3-3.2,0.4-4.9,0.4v-5.2L5.2,51.7v5.2h16.2c2,0,4-0.1,5.8-0.3V39.4z"/>
		
			<linearGradient id="SVGID_00000149339648677849285740000000772680081564780187_" gradientUnits="userSpaceOnUse" x1="0" y1="28.4441" x2="45.1662" y2="28.4441">
			<stop  offset="0" style="stop-color:#0070BF"/>
			<stop  offset="0.3271" style="stop-color:#0093EE"/>
			<stop  offset="1" style="stop-color:#00E9FF"/>
		</linearGradient>
		<path style="fill:url(#SVGID_00000149339648677849285740000000772680081564780187_);" d="M16.2,0H0v56.9l17.1-17.1V17.1
			c6.2,0.1,11,1.7,13.9,4.4c0.8,0.7,1.4,1.6,1.9,2.5l12.2-12.2C39.4,4.6,29.7,0,16.2,0z"/>
	</g>
	<g>
		<g>
			<g>
				<path class="st4" d="M70.1,47V26.6h9.3c2.2,0,4.2,0.4,5.9,1.3c1.7,0.8,3,2,4,3.5c1,1.5,1.4,3.3,1.4,5.4c0,2.1-0.5,3.9-1.4,5.4
					c-1,1.5-2.3,2.7-4,3.6c-1.7,0.8-3.6,1.3-5.9,1.3H70.1z M74.8,43.1h4.3c1.4,0,2.5-0.3,3.5-0.8c1-0.5,1.8-1.2,2.3-2.2
					c0.6-1,0.8-2.1,0.8-3.4c0-1.3-0.3-2.4-0.8-3.4c-0.6-0.9-1.3-1.7-2.3-2.2c-1-0.5-2.2-0.8-3.5-0.8h-4.3V43.1z"/>
				<path class="st4" d="M101.2,43.2h11.1V47H96.5V26.6h15.4v3.8h-10.7V43.2z M100.9,34.8h9.8v3.7h-9.8V34.8z"/>
				<path class="st4" d="M118.5,47V26.6h3.9l8.7,14.4H129l8.5-14.4h3.9l0.1,20.4H137l0-13.6h0.8L131,44.8h-2.1l-7-11.5h1V47H118.5z"
					/>
				<path class="st4" d="M158.6,47.3c-1.6,0-3.1-0.3-4.5-0.8c-1.4-0.5-2.6-1.3-3.6-2.2c-1-1-1.8-2.1-2.3-3.4
					c-0.6-1.3-0.8-2.7-0.8-4.2c0-1.5,0.3-2.9,0.8-4.2c0.6-1.3,1.3-2.4,2.3-3.4c1-1,2.2-1.7,3.6-2.2c1.4-0.5,2.8-0.8,4.4-0.8
					c1.6,0,3.1,0.3,4.4,0.8c1.3,0.5,2.5,1.3,3.5,2.2c1,1,1.8,2.1,2.3,3.3c0.6,1.3,0.8,2.7,0.8,4.2c0,1.5-0.3,2.9-0.8,4.2
					c-0.6,1.3-1.3,2.4-2.3,3.4c-1,0.9-2.2,1.7-3.5,2.2C161.7,47.1,160.2,47.3,158.6,47.3z M158.6,43.3c0.9,0,1.8-0.2,2.5-0.5
					c0.8-0.3,1.4-0.8,2-1.3c0.6-0.6,1-1.3,1.4-2.1c0.3-0.8,0.5-1.7,0.5-2.7c0-1-0.2-1.9-0.5-2.7c-0.3-0.8-0.8-1.5-1.3-2.1
					c-0.6-0.6-1.2-1-2-1.3s-1.6-0.5-2.5-0.5c-0.9,0-1.8,0.2-2.5,0.5c-0.8,0.3-1.4,0.8-2,1.3c-0.6,0.6-1,1.3-1.4,2.1
					c-0.3,0.8-0.5,1.7-0.5,2.7c0,1,0.2,1.8,0.5,2.6c0.3,0.8,0.8,1.5,1.3,2.1c0.6,0.6,1.2,1,2,1.3C156.8,43.2,157.7,43.3,158.6,43.3z
					"/>
			</g>
		</g>
		<g>
			<path class="st5" d="M70.4,19.3V9.6h3.8c1,0,1.9,0.2,2.7,0.6c0.8,0.4,1.4,1,1.8,1.7c0.4,0.7,0.6,1.6,0.6,2.5
				c0,0.9-0.2,1.8-0.6,2.5c-0.4,0.7-1,1.3-1.8,1.7c-0.8,0.4-1.7,0.6-2.7,0.6H70.4z M71.1,18.6h3.1c0.9,0,1.7-0.2,2.4-0.5
				c0.7-0.4,1.2-0.9,1.6-1.5c0.4-0.6,0.6-1.4,0.6-2.2c0-0.8-0.2-1.5-0.6-2.2c-0.4-0.6-0.9-1.1-1.6-1.5c-0.7-0.4-1.5-0.5-2.4-0.5
				h-3.1V18.6z"/>
			<path class="st5" d="M84.4,18.6h5.9v0.6h-6.6V9.6h6.4v0.6h-5.7V18.6z M84.3,14.1h5.2v0.6h-5.2V14.1z"/>
			<path class="st5" d="M98.9,19.3c-0.7,0-1.4-0.1-2-0.4c-0.6-0.2-1.1-0.6-1.6-1c-0.5-0.4-0.8-1-1.1-1.5c-0.2-0.6-0.4-1.2-0.4-1.9
				c0-0.7,0.1-1.4,0.4-1.9c0.2-0.6,0.6-1.1,1.1-1.5c0.5-0.4,1-0.8,1.6-1c0.6-0.2,1.3-0.4,2-0.4c0.7,0,1.3,0.1,1.9,0.3
				c0.6,0.2,1.1,0.6,1.5,1l-0.4,0.5c-0.4-0.4-0.9-0.7-1.4-0.9c-0.5-0.2-1-0.3-1.6-0.3c-0.6,0-1.2,0.1-1.7,0.3
				c-0.5,0.2-1,0.5-1.4,0.9s-0.7,0.8-0.9,1.3c-0.2,0.5-0.3,1.1-0.3,1.7c0,0.6,0.1,1.2,0.3,1.7c0.2,0.5,0.5,1,0.9,1.3
				c0.4,0.4,0.9,0.7,1.4,0.9c0.5,0.2,1.1,0.3,1.7,0.3c0.6,0,1.1-0.1,1.6-0.3c0.5-0.2,1-0.5,1.4-0.9l0.4,0.5
				c-0.4,0.4-0.9,0.7-1.5,0.9C100.2,19.2,99.6,19.3,98.9,19.3z M101.7,18v-3.5h0.7v3.6L101.7,18z"/>
			<path class="st5" d="M107.4,19.3V9.6h3.5c0.8,0,1.5,0.1,2.1,0.4c0.6,0.3,1,0.6,1.3,1.1c0.3,0.5,0.5,1.1,0.5,1.8
				c0,0.7-0.2,1.2-0.5,1.7c-0.3,0.5-0.8,0.9-1.3,1.1c-0.6,0.3-1.3,0.4-2.1,0.4h-3.1l0.3-0.3v3.5H107.4z M108.1,15.8l-0.3-0.3h3.1
				c1,0,1.8-0.2,2.4-0.7c0.5-0.5,0.8-1.1,0.8-1.9c0-0.8-0.3-1.5-0.8-1.9c-0.5-0.5-1.3-0.7-2.4-0.7h-3.1l0.3-0.3V15.8z M114,19.3
				l-2.5-3.5h0.8l2.5,3.5H114z"/>
			<path class="st5" d="M119.2,19.3V9.6h0.7v9.6H119.2z"/>
			<path class="st5" d="M124.1,19.3v-0.5L131,10l0.1,0.3h-6.9V9.6h7.5v0.5l-6.9,8.8l-0.1-0.3h7.1v0.6H124.1z"/>
		</g>
	</g>
</g>
</svg>
