<?xml version="1.0" encoding="utf-8"?>
<!-- Generator: Adobe Illustrator 26.1.0, SVG Export Plug-In . SVG Version: 6.00 Build 0)  -->
<svg version="1.1" id="Layer_1" xmlns="http://www.w3.org/2000/svg" xmlns:xlink="http://www.w3.org/1999/xlink" x="0px" y="0px"
	 viewBox="0 0 64 64" style="enable-background:new 0 0 64 64;" xml:space="preserve">
<style type="text/css">
	.st0{fill-rule:evenodd;clip-rule:evenodd;}
</style>
<g>
	<g id="Icon-Question" transform="translate(178.000000, 278.000000)">
		<path id="Fill-47" d="M-145.9-222c-4.7,0-9.1-1.4-12.8-3.7l-6.3,1.5l0.7-6.4c-3.4-4.1-5.5-9.5-5.5-15.3
			c0-13.2,10.7-23.9,23.9-23.9s23.9,10.7,23.9,23.9S-132.7-222-145.9-222L-145.9-222z M-145.9-267.2c-11.7,0-21.3,9.6-21.3,21.3
			c0,5.4,2.1,10.4,5.5,14.2l-0.6,4.5l4.1-1.3c3.5,2.5,7.7,4,12.3,4c11.7,0,21.3-9.6,21.3-21.3C-124.6-257.7-134.2-267.2-145.9-267.2
			L-145.9-267.2z"/>
	</g>
</g>
<path class="st0" d="M41.6,36.9c-0.5-0.3-3.1-1.5-3.6-1.7c-0.5-0.2-0.8-0.3-1.2,0.3c-0.3,0.5-1.3,1.7-1.7,2
	c-0.3,0.3-0.6,0.4-1.1,0.1c-0.5-0.3-2.2-0.8-4.2-2.6c-1.6-1.4-2.6-3.1-2.9-3.6c-0.3-0.5,0-0.8,0.2-1.1c0.2-0.2,0.5-0.6,0.8-0.9
	c0.3-0.3,0.3-0.5,0.5-0.9c0.2-0.3,0.1-0.7,0-0.9c-0.1-0.3-1.2-2.8-1.6-3.9c-0.4-1-0.9-0.9-1.2-0.9c-0.3,0-0.7,0-1,0
	c-0.3,0-0.9,0.1-1.4,0.7c-0.5,0.5-1.8,1.8-1.8,4.4c0,2.6,1.9,5,2.1,5.4c0.3,0.3,3.7,5.6,8.9,7.9c1.2,0.5,2.2,0.9,3,1.1
	c1.2,0.4,2.4,0.3,3.3,0.2c1-0.1,3.1-1.3,3.5-2.5c0.4-1.2,0.4-2.3,0.3-2.5C42.5,37.3,42.1,37.1,41.6,36.9"/>
</svg>
